# xmcd
#
# Track frame offsets:
# 150
# 25139
# 48737
# 69492
# 87012
# 103605
# 123255
# 142437
# 161965
# 177757
# 207976
#
# Disc length: 3066 seconds
#
# Revision: 0
# Processed by: cddbd v1.5.2PL0 Copyright (c) Steve Scherf et al.
# Submitted via: Audion 3.0.2 (http://www.panic.com/audion/)
#
DISCID=9f0bf80b
DTITLE=Tommy Lee Cook - Cemetery Road
DYEAR=1900
DGENRE=Blues
TTITLE0=Six Strings Down
TTITLE1=Big Boss Man
TTITLE2=Bending Like A Willow Tree
TTITLE3=Cemetery Road
TTITLE4=Little Head
TTITLE5=Late Night Drive
TTITLE6=Nothing Lasts Forever
TTITLE7=Blues As Blues Can Get
TTITLE8=Too Drunk To Boogie
TTITLE9=Porta Rican Woman
TTITLE10=Little Sister
EXTD=
EXTT0=
EXTT1=
EXTT2=
EXTT3=
EXTT4=
EXTT5=
EXTT6=
EXTT7=
EXTT8=
EXTT9=
EXTT10=
PLAYORDER=
